PathFileType	4	(X/Y/Z)	s04c0202.trc
DataRate	CameraRate	NumFrames	NumMarkers	Units	OrigDataRate	OrigDataStartFrame	OrigNumFrames
200	200	4	50	mm	200	1000	2000
Frame#	Time	racr			lacr			c7			jug			rlel			rdr			llel			ldr			s2			lic			ric			lasi			rasi			rpsi			lpsi			rgt			lgt			rth1			rth2			rth3			rth4			rlfc			rmfc			rsh1			rsh2			rsh3			rsh4			rlmal			rmmal			rcal			rtoe			rmt5			lth1			lth2			lth4			lth3			llfc			lmfc			lsh1			lsh2			lsh3			lsh4			llmal			lmmal			lcal			ltoe			lmt5			SBIKE			LBIKE			RBIKE			
		X1	Y1	Z1	X2	Y2	Z2	X3	Y3	Z3	X4	Y4	Z4	X5	Y5	Z5	X6	Y6	Z6	X7	Y7	Z7	X8	Y8	Z8	X9	Y9	Z9	X10	Y10	Z10	X11	Y11	Z11	X12	Y12	Z12	X13	Y13	Z13	X14	Y14	Z14	X15	Y15	Z15	X16	Y16	Z16	X17	Y17	Z17	X18	Y18	Z18	X19	Y19	Z19	X20	Y20	Z20	X21	Y21	Z21	X22	Y22	Z22	X23	Y23	Z23	X24	Y24	Z24	X25	Y25	Z25	X26	Y26	Z26	X27	Y27	Z27	X28	Y28	Z28	X29	Y29	Z29	X30	Y30	Z30	X31	Y31	Z31	X32	Y32	Z32	X33	Y33	Z33	X34	Y34	Z34	X35	Y35	Z35	X36	Y36	Z36	X37	Y37	Z37	X38	Y38	Z38	X39	Y39	Z39	X40	Y40	Z40	X41	Y41	Z41	X42	Y42	Z42	X43	Y43	Z43	X44	Y44	Z44	X45	Y45	Z45	X46	Y46	Z46	X47	Y47	Z47	X48	Y48	Z48	X49	Y49	Z49	X50	Y50	Z50	
1000	5.0000	509.259996	1341.307451	-180.062558	494.959697	1333.702436	-460.473560	482.245786	1409.923033	-320.607486	443.003042	1258.538668	-322.527340	454.125625	1075.653798	0.771944	690.843945	947.834457	-113.181371	456.811786	1083.026368	-607.136627	676.721428	943.773374	-485.927221	-77.767083	1180.033825	-288.521661	62.546133	1201.699838	-449.563020	82.295256	1192.503799	-127.923219	108.617650	1160.281728	-408.484283	128.584126	1145.021162	-173.430581	-48.544310	1225.076681	-243.972635	-55.497082	1231.082467	-317.185643	33.913161	1127.973228	-113.197350	43.544540	1129.770256	-477.054702	134.768196	994.566182	-90.348475	201.742488	937.136205	-95.106513	233.528688	857.738258	-95.049805	228.521077	956.998783	-111.978299	293.871026	725.983449	-112.290450	280.518372	707.507478	-226.697224	215.865291	624.926806	-90.346321	186.780086	540.183326	-108.059918	119.128004	487.319184	-120.215300	216.141505	525.514848	-128.691180	44.396768	352.002100	-129.192390	76.137033	350.390373	-211.621497	-24.839215	352.427195	-177.200515	228.186506	183.666441	-156.072297	154.339465	198.904924	-108.030919	113.213624	1070.571562	-484.016368	198.501069	1055.378450	-487.248640	213.857072	1086.924843	-476.928636	266.258413	997.412739	-490.811976	401.071858	907.070912	-468.445953	435.795500	890.178772	-359.062875	375.368325	793.139428	-492.182856	361.378759	709.279354	-470.221884	306.913798	639.188835	-467.432600	386.995523	702.438244	-441.674696	243.687899	506.925624	-457.614685	242.926591	516.209409	-366.588288	161.031024	484.337349	-418.439569	460.828439	471.926561	-417.098305	393.090526	431.474654	-479.983979	-185.326627	931.915590	-287.052246	-17.151740	79.716477	-486.028882	-17.455424	79.456125	-84.945123	
1001	5.0050	508.246642	1341.210680	-179.400488	494.353595	1333.989357	-460.676616	481.428281	1410.084646	-320.089753	442.076315	1258.718911	-322.211150	452.503359	1075.042786	0.956552	689.202261	947.318765	-112.927415	455.915507	1083.316349	-607.593475	675.792030	943.916365	-486.286446	-77.677474	1178.251703	-288.541908	62.568815	1199.694505	-450.116039	82.596827	1191.174856	-128.410521	108.373860	1158.275135	-408.201635	128.971750	1143.910306	-173.865338	-48.569315	1223.466891	-244.146031	-55.332886	1229.028757	-317.458907	34.866795	1127.181605	-112.970903	43.806615	1124.475369	-476.750429	138.649938	996.495820	-91.921437	206.667185	940.324915	-96.930944	240.208472	861.795908	-96.055611	233.368646	961.002058	-113.511393	301.133587	730.482309	-112.119225	287.796496	711.660591	-226.340961	221.394048	630.954534	-90.099885	189.803429	546.940661	-107.936581	120.856879	495.967485	-120.035011	218.882582	531.538715	-128.667491	42.430450	362.669142	-129.223852	74.476522	360.129787	-211.600062	-26.783403	365.070983	-177.321524	221.449973	189.003728	-155.882152	148.054651	206.422493	-108.029283	113.517550	1064.028891	-483.748364	198.405534	1047.025725	-486.716385	214.464284	1078.903879	-477.416262	265.293354	988.228055	-489.755831	396.732441	894.653200	-468.336619	431.980886	877.640263	-357.695994	374.007459	779.672948	-491.074659	361.151512	695.822763	-468.548040	308.016923	624.772110	-466.130292	386.889456	689.191856	-439.666477	247.057809	492.467435	-457.289363	243.711313	499.815687	-366.005122	165.363711	466.981663	-417.930937	465.124227	466.191156	-417.147177	398.927827	423.241793	-480.057925	-185.299927	931.765892	-286.725515	-17.410516	79.318156	-485.694173	-17.463360	79.374459	-84.938092	
1002	5.0100	507.308074	1341.287182	-178.668254	493.779188	1334.290362	-460.791293	480.762507	1410.377463	-319.809346	441.065611	1259.089097	-321.932509	450.986958	1074.937714	0.940084	687.478307	946.699743	-112.847575	454.996018	1083.552569	-607.912766	674.977347	944.098652	-486.717153	-77.581853	1176.253799	-288.728783	62.663308	1197.512700	-450.835594	82.966801	1189.769054	-128.903669	108.306538	1156.200011	-408.083035	129.469396	1142.990944	-174.283903	-48.544287	1221.657688	-244.390968	-54.203542	1226.808756	-318.799508	35.574762	1126.103409	-112.938652	44.243990	1118.414484	-476.493810	142.391490	998.359590	-93.094698	211.455366	943.583715	-98.122254	246.536509	865.662834	-97.041852	237.349047	964.269075	-115.580931	307.964776	734.786114	-111.918796	294.441909	716.085477	-226.132059	226.486116	636.881407	-89.827139	192.920908	553.619567	-107.685907	122.538134	504.437104	-119.793575	221.470698	537.520655	-128.629244	40.569344	373.550567	-129.352242	72.336134	370.152427	-211.470774	-28.709781	377.403822	-177.318040	215.117024	195.189837	-155.696240	142.186780	214.353334	-107.963755	113.944572	1057.211483	-483.665480	198.534625	1038.903639	-486.576272	215.133696	1070.673273	-477.907427	264.487881	978.976591	-488.789768	394.411396	883.518753	-466.158512	428.104157	865.259274	-355.957829	372.393927	766.355304	-489.469104	360.980552	682.185972	-466.763016	309.254763	610.191579	-464.704483	386.625672	676.208514	-437.645335	250.546624	478.221762	-456.736191	245.713275	482.499526	-366.266578	169.590581	450.259919	-417.370463	469.240817	459.500066	-417.198126	404.338504	414.491165	-479.972140	-185.218420	931.729204	-286.556296	-17.524530	79.189282	-485.578591	-17.465681	79.333513	-84.913280	
1003	5.0150	506.385831	1341.495046	-177.944201	493.338777	1334.501137	-461.067665	480.100728	1410.607629	-319.304925	440.275776	1259.339920	-321.407217	449.589335	1075.144063	0.849744	685.767779	946.202325	-112.883838	454.047409	1083.704228	-608.125865	674.248822	944.272403	-487.114222	-77.583194	1173.905210	-288.923256	62.814450	1195.188498	-451.588251	83.281403	1188.293593	-129.280414	108.434632	1154.072279	-408.162041	130.111427	1141.591277	-175.311811	-48.527451	1219.556967	-244.655887	-53.809611	1224.182012	-319.452423	36.459676	1124.755310	-113.104801	44.755121	1111.959130	-476.119320	146.092419	1000.018464	-95.078542	216.013795	946.458697	-99.655025	252.403443	869.157064	-98.024484	241.115707	966.961788	-117.459065	314.462390	738.674897	-111.768824	300.950207	720.078166	-225.796479	231.470220	642.517565	-89.507563	195.779028	560.086582	-107.537128	124.172544	512.730569	-119.496076	223.892545	543.457945	-128.631363	38.495884	384.002842	-129.146880	70.369775	380.025556	-211.431425	-30.788216	389.642786	-177.300657	209.347465	202.064475	-155.715892	136.845769	222.760184	-107.836202	114.446143	1050.450465	-483.677363	198.833880	1030.852631	-486.895318	215.896027	1062.375101	-478.375135	263.770419	969.810219	-488.058622	391.519229	871.707241	-465.295381	424.303030	853.142462	-356.852395	370.707172	753.206921	-487.989998	360.905440	668.902680	-465.177229	310.827063	595.791988	-463.318663	386.402105	663.669915	-435.842551	253.775990	464.435742	-456.176188	248.243140	465.538445	-367.590008	173.770574	434.266924	-416.716590	473.064214	452.006568	-417.190918	409.289523	405.218608	-479.906479	-185.108458	931.850144	-286.384368	-17.538537	79.163890	-485.544508	-17.471210	79.293793	-84.887443	
